<?xml version="1.0" encoding="UTF-8"?>
<svg width="752pt" height="752pt" version="1.1" viewBox="0 0 752 752" xmlns="http://www.w3.org/2000/svg">
 <defs>
  <clipPath id="b">
   <path d="m139.21 139.21h473.58v148.79h-473.58z"/>
  </clipPath>
  <clipPath id="a">
   <path d="m139.21 523h473.58v89.793h-473.58z"/>
  </clipPath>
 </defs>
 <g clip-path="url(#b)">
  <path d="m597.99 287.2h-443.98c-3.9258 0-7.6914-1.5586-10.465-4.332-2.7773-2.7773-4.3359-6.5391-4.3359-10.465v-44.398c0-3.1055 0.97656-6.1328 2.793-8.6523s4.3789-4.4062 7.3242-5.3867l221.99-73.996v-0.003906c3.0391-1.0117 6.3242-1.0117 9.3633 0l221.99 73.996v0.003906c2.9453 0.98047 5.5078 2.8672 7.3242 5.3867s2.793 5.5469 2.793 8.6523v44.398c0 3.9258-1.5586 7.6875-4.3359 10.465-2.7734 2.7734-6.5391 4.332-10.465 4.332zm-429.18-29.598h414.38v-18.934l-207.19-69.059-207.19 69.059z" fill="#fff"/>
 </g>
 <path d="m242.81 346.4h-29.602c-11.77-0.011719-23.055-4.6953-31.379-13.02-8.3242-8.3203-13.004-19.605-13.02-31.379v-29.598c0-3.9258 1.5586-7.6914 4.3359-10.465 2.7734-2.7773 6.5391-4.3359 10.465-4.3359h88.797c3.9258 0 7.6875 1.5586 10.465 4.3359 2.7734 2.7734 4.332 6.5391 4.332 10.465v29.598c-0.011719 11.773-4.6914 23.059-13.016 31.379-8.3242 8.3242-19.609 13.008-31.379 13.02zm-44.398-59.199v14.801c0.003906 3.9258 1.5625 7.6836 4.3398 10.461 2.7734 2.7734 6.5352 4.332 10.457 4.3398h29.602c3.9219-0.007813 7.6836-1.5664 10.457-4.3398 2.7734-2.7773 4.3359-6.5352 4.3398-10.461v-14.801z" fill="#fff"/>
 <path d="m390.8 346.4h-29.598c-11.773-0.011719-23.059-4.6953-31.383-13.02-8.3203-8.3203-13.004-19.605-13.016-31.379v-29.598c0-3.9258 1.5586-7.6914 4.332-10.465 2.7773-2.7773 6.543-4.3359 10.465-4.3359h88.797c3.9258 0 7.6914 1.5586 10.465 4.3359 2.7773 2.7734 4.3359 6.5391 4.3359 10.465v29.598c-0.011719 11.773-4.6953 23.059-13.02 31.379-8.3242 8.3242-19.609 13.008-31.379 13.02zm-44.398-59.199v14.801c0.003906 3.9258 1.5664 7.6836 4.3398 10.461 2.7734 2.7734 6.5352 4.332 10.461 4.3398h29.598c3.9258-0.003907 7.6875-1.5664 10.461-4.3398 2.7734-2.7734 4.3359-6.5352 4.3398-10.461v-14.801z" fill="#fff"/>
 <path d="m538.79 346.4h-29.598c-11.77-0.011719-23.055-4.6953-31.379-13.02-8.3242-8.3203-13.004-19.605-13.02-31.379v-29.598c0-3.9258 1.5586-7.6914 4.3359-10.465 2.7734-2.7773 6.5391-4.3359 10.465-4.3359h88.797c3.9258 0 7.6875 1.5586 10.465 4.3359 2.7734 2.7734 4.332 6.5391 4.332 10.465v29.598c-0.011718 11.773-4.6914 23.059-13.016 31.379-8.3242 8.3242-19.609 13.008-31.383 13.02zm-44.398-59.199v14.801h0.003907c0 3.9258 1.5625 7.6875 4.3359 10.461 2.7773 2.7734 6.5391 4.3359 10.461 4.3398h29.598c3.9258-0.003907 7.6875-1.5664 10.461-4.3398 2.7773-2.7734 4.3359-6.5352 4.3398-10.461v-14.801z" fill="#fff"/>
 <path d="m568.39 553.59h-88.797c-3.9258 0-7.6914-1.5586-10.465-4.3359-2.7773-2.7734-4.3359-6.5391-4.3359-10.465v-29.598c0.015625-11.77 4.6953-23.055 13.02-31.379 8.3242-8.3242 19.609-13.004 31.379-13.02h29.598c11.773 0.015625 23.059 4.6953 31.383 13.02 8.3242 8.3242 13.004 19.609 13.016 31.379v29.598c0 3.9258-1.5586 7.6914-4.332 10.465-2.7773 2.7773-6.5391 4.3359-10.465 4.3359zm-73.996-29.598h59.199l-0.003906-14.801c-0.003906-3.9219-1.5625-7.6836-4.3398-10.461-2.7734-2.7734-6.5352-4.3359-10.461-4.3359h-29.598c-3.9219 0-7.6836 1.5625-10.461 4.3359-2.7734 2.7773-4.3359 6.5391-4.3359 10.461z" fill="#fff"/>
 <path d="m420.4 553.59h-88.797c-3.9219 0-7.6875-1.5586-10.465-4.3359-2.7734-2.7734-4.332-6.5391-4.332-10.465v-29.598c0.011718-11.77 4.6953-23.055 13.016-31.379 8.3242-8.3242 19.609-13.004 31.383-13.02h29.598c11.77 0.015625 23.055 4.6953 31.379 13.02 8.3242 8.3242 13.008 19.609 13.02 31.379v29.598c0 3.9258-1.5586 7.6914-4.3359 10.465-2.7734 2.7773-6.5391 4.3359-10.465 4.3359zm-73.996-29.598h59.199v-14.801c-0.003906-3.9219-1.5664-7.6836-4.3398-10.461-2.7734-2.7734-6.5352-4.3359-10.461-4.3359h-29.598c-3.9258 0.003906-7.6875 1.5625-10.461 4.3398-2.7734 2.7734-4.3359 6.5352-4.3398 10.457z" fill="#fff"/>
 <path d="m272.41 553.59h-88.797c-3.9258 0-7.6914-1.5586-10.465-4.3359-2.7773-2.7734-4.3359-6.5391-4.3359-10.465v-29.598c0.015625-11.77 4.6953-23.055 13.02-31.379 8.3242-8.3242 19.609-13.004 31.379-13.02h29.602c11.77 0.015625 23.055 4.6953 31.379 13.02 8.3242 8.3242 13.004 19.609 13.016 31.379v29.598c0 3.9258-1.5586 7.6914-4.332 10.465-2.7773 2.7773-6.5391 4.3359-10.465 4.3359zm-73.996-29.598h59.195v-14.801c-0.003907-3.9219-1.5664-7.6836-4.3398-10.457-2.7734-2.7773-6.5352-4.3359-10.457-4.3398h-29.602c-3.9219 0.003906-7.6836 1.5625-10.457 4.3398-2.7773 2.7734-4.3359 6.5352-4.3398 10.457z" fill="#fff"/>
 <path d="m257.61 494.4h-59.195c-3.9258 0-7.6914-1.5625-10.465-4.3359-2.7773-2.7773-4.3359-6.5391-4.3359-10.465v-148c0-3.9219 1.5586-7.6875 4.3359-10.465 2.7734-2.7734 6.5391-4.332 10.465-4.332h59.195c3.9258 0 7.6914 1.5586 10.465 4.332 2.7773 2.7773 4.3359 6.543 4.3359 10.465v148c0 3.9258-1.5586 7.6875-4.3359 10.465-2.7734 2.7734-6.5391 4.3359-10.465 4.3359zm-44.398-29.602h29.602v-118.39h-29.602z" fill="#fff"/>
 <path d="m405.6 494.4h-59.199c-3.9258 0-7.6875-1.5625-10.465-4.3359-2.7734-2.7773-4.3359-6.5391-4.3359-10.465v-148c0-3.9219 1.5625-7.6875 4.3359-10.465 2.7773-2.7734 6.5391-4.332 10.465-4.332h59.199c3.9219 0 7.6875 1.5586 10.465 4.332 2.7734 2.7773 4.332 6.543 4.332 10.465v148c0 3.9258-1.5586 7.6875-4.332 10.465-2.7773 2.7734-6.543 4.3359-10.465 4.3359zm-44.398-29.598h29.598v-118.4h-29.598z" fill="#fff"/>
 <path d="m553.59 494.4h-59.195c-3.9258 0-7.6914-1.5625-10.465-4.3359-2.7773-2.7773-4.3359-6.5391-4.3359-10.465v-148c0-3.9219 1.5586-7.6875 4.3359-10.465 2.7734-2.7734 6.5391-4.332 10.465-4.332h59.199-0.003906c3.9258 0 7.6914 1.5586 10.465 4.332 2.7773 2.7773 4.3359 6.543 4.3359 10.465v148c0 3.9258-1.5586 7.6875-4.3359 10.465-2.7734 2.7734-6.5391 4.3359-10.465 4.3359zm-44.398-29.598h29.598v-118.4h-29.598z" fill="#fff"/>
 <g clip-path="url(#a)">
  <path d="m568.39 612.79h-384.79c-15.863 0-30.52-8.4648-38.449-22.199-7.9336-13.738-7.9336-30.664 0-44.398 7.9297-13.738 22.586-22.199 38.449-22.199h384.79c15.859 0 30.52 8.4609 38.449 22.199 7.9297 13.734 7.9297 30.66 0 44.398-7.9297 13.734-22.59 22.199-38.449 22.199zm-384.79-59.199c-5.2891 0-10.172 2.8203-12.816 7.3984-2.6445 4.582-2.6445 10.223 0 14.801s7.5273 7.3984 12.816 7.3984h384.79c5.2852 0 10.172-2.8203 12.816-7.3984 2.6445-4.5781 2.6445-10.219 0-14.801-2.6445-4.5781-7.5312-7.3984-12.816-7.3984z" fill="#fff"/>
 </g>
 <path d="m405.6 234.75h-59.199c-5.2852 0-10.172-2.8203-12.816-7.3984-2.6445-4.582-2.6445-10.223 0-14.801 2.6445-4.5781 7.5312-7.3984 12.816-7.3984h59.199c5.2852 0 10.172 2.8203 12.816 7.3984 2.6406 4.5781 2.6406 10.219 0 14.801-2.6445 4.5781-7.5312 7.3984-12.816 7.3984z" fill="#fff"/>
</svg>
